<?xml version="1.0" encoding="utf-8"?>
<!-- Generator: Adobe Illustrator 19.0.0, SVG Export Plug-In . SVG Version: 6.00 Build 0)  -->
<svg version="1.1" id="Layer_1" xmlns="http://www.w3.org/2000/svg" xmlns:xlink="http://www.w3.org/1999/xlink" x="0px" y="0px"
	 viewBox="0 0 98.9 106.6" style="enable-background:new 0 0 98.9 106.6;" xml:space="preserve">
<style type="text/css">
	.st0{fill-rule:evenodd;clip-rule:evenodd;fill:#D80000;}
</style>
<path id="XMLID_8_" class="st0" d="M49.4,14c3.2,3.9,10.6,15.5,2.6,32.6c0,0,5.4-18.4-2.4-27.2c-0.1-0.1-0.1-0.2-0.2-0.2
	c-0.1,0.1-0.1,0.2-0.2,0.2c-7.8,8.8-2.4,27.2-2.4,27.2C38.8,29.5,46.3,17.9,49.4,14L49.4,14z M0,60.6c6.9,43.3,31.4,47.8,34.8,43.2
	c-10.4-6-5.8-21.4,0-24.4c5.8-3,9.9,0.9,9.9,0.9l2.3-0.7c-8-19.2,0.9-24.9,2.4-25.7c1.5,0.8,10.4,6.6,2.4,25.7l2.3,0.7
	c0,0,4.1-3.9,9.9-0.9c5.8,3,10.4,18.4,0,24.4c3.4,4.6,27.9,0.1,34.8-43.2c0,0-4.1,0.5-5.4,4.8c1.3-11.2,3.2-13.8-10.8-43.6
	c-1-4-2.7-7.6,3.2-10.9C79.5,9.6,67,22.6,73.4,43.4c6.4,20.7-8,21.8-13.5,12C60.9,65.1,67.7,73.8,76,72c8.2-1.8,9.7-14.9,2.6-31.1
	c-4-10.4,0-18.2,0-18.2s0.5,4.4,5.3,14c4.8,9.6,9.1,29.5-2,40.4c5.8,0,8.2-3.5,8.2-3.5s-2.4,13-12.5,18.3c1.1-9-5.8-21-19.7-19.7
	c4.9-5.7,1.2-16.3-3.5-19.7c0,0,2.8-14.9,7.8-23.7c-2.7-1.4-4.2,1.6-4.2,1.6s1.1-6.9,4.8-10.1c0,0-2.5-0.7-3.9,0.5
	c1.1-4.8-1.1-10.1-3.9-14.2c-0.5,4.1-0.5,4.1-0.5,4.1s-1.6-6.2-4.9-10.6c-0.1-0.1-0.1-0.2-0.2-0.3c-0.1,0.1-0.1,0.2-0.2,0.3
	c-3.2,4.4-4.9,10.6-4.9,10.6s0,0-0.5-4.1c-2.8,4.1-5,9.4-3.9,14.2c-1.4-1.2-3.9-0.5-3.9-0.5c3.7,3.2,4.8,10.1,4.8,10.1
	s-1.6-3-4.3-1.6c5,8.9,7.8,23.7,7.8,23.7c-4.6,3.4-8.3,14-3.5,19.7C27.1,71,20.2,82.9,21.2,92C11.2,86.6,8.8,73.6,8.8,73.6
	s2.4,3.5,8.2,3.5c-11.2-10.9-6.8-30.8-2-40.4c4.8-9.6,5.3-14,5.3-14s4,7.9,0,18.2c-7.2,16.2-5.7,29.3,2.6,31.1
	C31.2,73.8,38,65.1,39,55.3c-5.6,9.8-19.9,8.8-13.5-12C31.9,22.6,19.4,9.6,13,11c5.8,3.3,4.2,6.9,3.2,10.9
	C2.2,51.6,4.1,54.2,5.4,65.4C4.1,61.1,0,60.6,0,60.6z"/>
<path id="XMLID_7_" class="st0" d="M49.5,98.1c0,0-2.3-0.7-3.3-2.5c-1.7,0.8,0.5,7,3.2,10.9L49.5,98.1z"/>
<path id="XMLID_6_" class="st0" d="M49.4,97.2c0,0-2.6-1.6-2.5-2.7c0.1-1.1,0.6-4-2-5.9c0,2.1-0.3,2.9,0.4,3
	c0.7,0.2,1.7,1.9,0.9,2.7c-0.8,0.8-2.7-1.2-3.6-4.1c-0.8-3-2.9-13.5-2.9-13.5s5.7-0.3,8.8,3.9c-1.4-1.2-4,5.2-1.5,8.5
	c2.5,3.3,3.1,4.8,2.5,8L49.4,97.2z"/>
<path id="XMLID_5_" class="st0" d="M49.4,98.1c0,0,2.3-0.7,3.3-2.5c1.7,0.8-0.5,7-3.2,10.9L49.4,98.1z"/>
<path id="XMLID_4_" class="st0" d="M49.4,97.2c0,0,2.6-1.6,2.5-2.7c-0.1-1.1-0.6-4,2-5.9c0,2.1,0.3,2.9-0.4,3
	c-0.7,0.2-1.7,1.9-0.9,2.7c0.8,0.8,2.7-1.2,3.6-4.1c0.8-3,2.9-13.5,2.9-13.5s-5.7-0.3-8.8,3.9c1.4-1.2,4,5.2,1.5,8.5
	c-2.5,3.3-3.1,4.8-2.5,8L49.4,97.2z"/>
<path id="XMLID_3_" class="st0" d="M50.3,80.6c0,0,3.6-4.4,4.6-11c0.9,6.8-0.9,9.6-0.9,9.6L50.3,80.6z"/>
<path id="XMLID_2_" class="st0" d="M48.6,80.6c0,0-3.6-4.4-4.6-11c-0.9,6.8,0.9,9.6,0.9,9.6L48.6,80.6z"/>
</svg>
